<?xml version="1.0" encoding="UTF-8" standalone="no"?>
<!DOCTYPE svg PUBLIC "-//W3C//DTD SVG 1.1//EN" "http://www.w3.org/Graphics/SVG/1.1/DTD/svg11.dtd">
<svg width="100%" height="100%" viewBox="0 0 631 746" version="1.1" xmlns="http://www.w3.org/2000/svg" xmlns:xlink="http://www.w3.org/1999/xlink" xml:space="preserve" xmlns:serif="http://www.serif.com/" style="fill-rule:evenodd;clip-rule:evenodd;stroke-linecap:round;stroke-linejoin:round;stroke-miterlimit:10;">
    <g transform="matrix(1,0,0,1,-266.094,-876)">
        <rect x="444.094" y="877" width="274" height="54" style="fill-opacity:0;stroke:black;stroke-opacity:0;stroke-width:2px;"/>
    </g>
    <g transform="matrix(0.724459,-0.689318,0.689318,0.724459,-568.692,596.46)">
        <path d="M615.419,722.734C668.174,745.93 731.132,745.93 804.293,722.734" style="fill:none;fill-rule:nonzero;stroke:black;stroke-width:2px;stroke-linecap:butt;stroke-dasharray:6,4;"/>
    </g>
    <g transform="matrix(1,0,0,1,-266.094,197.304)">
        <path d="M772.686,368.111L781.447,372.934L781.889,361.762L772.686,368.111Z" style="fill-rule:nonzero;"/>
    </g>
    <g transform="matrix(1.79372e-06,-1,1,1.79372e-06,129.124,674.968)">
        <path d="M553.219,185.875L608.969,185.875" style="fill:none;fill-rule:nonzero;stroke:black;stroke-width:2px;stroke-linecap:butt;"/>
    </g>
    <g transform="matrix(1,0,0,1,-266.094,-805)">
        <path d="M576.094,868.5L581.094,863.5L586.094,868.5L584.68,869.914L582.094,866.9L582.094,873.5L580.094,873.5L580.094,866.9L577.508,869.914L576.094,868.5M576.094,868.5L576.095,868.5L576.095,868.499L576.094,868.499L576.094,868.5Z" style="fill-rule:nonzero;"/>
    </g>
    <g transform="matrix(3.50877e-06,-1,1,3.50877e-06,23.9979,780.093)">
        <path d="M566.844,291L595.344,291" style="fill:none;fill-rule:nonzero;stroke:black;stroke-width:2px;stroke-linecap:butt;"/>
    </g>
    <g transform="matrix(1,0,0,1,-266.094,-567.5)">
        <path d="M576.094,749.75L581.094,744.75L586.094,749.75L584.68,751.164L582.094,748.15L582.094,754.75L580.094,754.75L580.094,748.15L577.508,751.164L576.094,749.75M576.094,749.75L576.095,749.75L576.095,749.749L576.094,749.749L576.094,749.75Z" style="fill-rule:nonzero;"/>
    </g>
    <g transform="matrix(1,0,0,-1,-266.094,711.5)">
        <path d="M355.594,120L355.594,683.5L433.094,683.5" style="fill:none;fill-rule:nonzero;stroke:black;stroke-width:2px;stroke-linecap:butt;"/>
    </g>
    <g transform="matrix(1,0,0,1,-266.094,-876.001)">
        <path d="M435.594,899.001L440.594,904.001L435.594,909.001L434.18,907.587L437.194,905.001L430.594,905.001L430.594,903.001L437.194,903.001L434.18,900.415L435.594,899.001M435.594,899.001L435.595,899.001L435.595,899L435.594,899L435.594,899.001Z" style="fill-rule:nonzero;"/>
    </g>
    <g transform="matrix(-0.913413,-0.407035,0.407035,-0.913413,324.721,1556.29)">
        <path d="M418.328,761.305L523.124,761.305" style="fill:none;fill-rule:nonzero;stroke:black;stroke-width:2px;stroke-linecap:butt;"/>
    </g>
    <g transform="matrix(1,0,0,1,-266.094,361.92)">
        <path d="M418.546,289.607L416.014,283.005L422.616,280.473L423.333,282.34L419.527,283.475L425.555,286.162L424.741,287.989L418.713,285.302L420.414,288.891L418.546,289.607M418.546,289.607L418.547,289.607L418.547,289.606L418.546,289.606L418.546,289.607Z" style="fill-rule:nonzero;"/>
    </g>
    <g transform="matrix(0,-1,1,0,-336.344,1138.25)">
        <path d="M450.75,650.25L709.25,650.25" style="fill:none;fill-rule:nonzero;stroke:black;stroke-width:2px;stroke-linecap:butt;"/>
    </g>
    <g transform="matrix(1,0,0,1,-266.094,-84)">
        <path d="M575,508L580,503L585,508L583.586,509.414L581,506.4L581,513L579,513L579,506.4L576.414,509.414L575,508M575,508L575.001,508L575.001,507.999L575,507.999L575,508Z" style="fill-rule:nonzero;"/>
    </g>
    <g transform="matrix(-0.886584,-0.462567,0.462567,-0.886584,779.316,1234.19)">
        <path d="M636.982,534.932L733.592,534.932" style="fill:none;fill-rule:nonzero;stroke:black;stroke-width:2px;stroke-linecap:butt;"/>
    </g>
    <g transform="matrix(1,0,0,1,-266.094,-93.1364)">
        <path d="M637.931,517.001L635.811,510.255L642.557,508.135L643.157,510.043L639.288,510.941L645.14,513.994L644.215,515.768L638.363,512.715L639.839,516.401L637.931,517.001M637.931,517.001L637.932,517.001L637.932,517L637.931,517L637.931,517.001Z" style="fill-rule:nonzero;"/>
    </g>
    <g transform="matrix(0.00782614,-0.999969,0.999969,0.00782614,-108.516,903.565)">
        <path d="M547.356,418.375L613.609,418.375" style="fill:none;fill-rule:nonzero;stroke:black;stroke-width:2px;stroke-linecap:butt;"/>
    </g>
    <g transform="matrix(1,0,0,1,-266.094,-350.493)">
        <path d="M575.761,641.203L580.8,636.243L585.761,641.282L584.336,642.685L581.774,639.65L581.722,646.25L579.722,646.234L579.774,639.635L577.164,642.628L575.761,641.203M575.761,641.203L575.762,641.203L575.762,641.202L575.761,641.202L575.761,641.203Z" style="fill-rule:nonzero;"/>
    </g>
    <g transform="matrix(1,0,0,-1,-266.094,579)">
        <path d="M810,120L810,551L729.094,551" style="fill:none;fill-rule:nonzero;stroke:black;stroke-width:2px;stroke-linecap:butt;"/>
    </g>
    <g transform="matrix(1,0,0,1,-266.094,-876)">
        <path d="M726.594,909L721.594,904L726.594,899L728.008,900.414L724.994,903L731.594,903L731.594,905L724.994,905L728.008,907.586L726.594,909M726.594,909L726.595,909L726.595,908.999L726.594,908.999L726.594,909Z" style="fill-rule:nonzero;"/>
    </g>
    <g transform="matrix(1,0,0,1,-266.094,-635.5)">
        <rect x="497.094" y="758.25" width="168" height="51" style="fill-opacity:0;stroke:black;stroke-opacity:0;stroke-width:2px;"/>
    </g>
    <g transform="matrix(1,0,0,1,-266.094,-435.5)">
        <rect x="450.594" y="649.75" width="261" height="68" style="fill-opacity:0;stroke:black;stroke-opacity:0;stroke-width:2px;"/>
    </g>
    <g transform="matrix(1,0,0,1,-266.094,504)">
        <rect x="519.5" y="187" width="121" height="54" style="fill-opacity:0;stroke:black;stroke-opacity:0;stroke-width:2px;"/>
    </g>
    <g transform="matrix(1,0,0,1,-266.094,84)">
        <rect x="729" y="376" width="162" height="96" style="fill-opacity:0;stroke:black;stroke-opacity:0;stroke-width:2px;"/>
    </g>
    <g transform="matrix(1,0,0,1,-266.094,304)">
        <rect x="267.094" y="288.5" width="177" height="51" style="fill-opacity:0;stroke:black;stroke-opacity:0;stroke-width:2px;"/>
    </g>
    <g transform="matrix(1,0,0,1,-266.094,-156)">
        <rect x="466.5" y="516.5" width="227" height="55" style="fill-opacity:0;stroke:black;stroke-opacity:0;stroke-width:2px;"/>
    </g>
    <g transform="matrix(1,0,0,1,-266.094,-92)">
        <text x="449.158px" y="129px" style="font-family:'HelveticaNeue-MediumItalic', 'Helvetica Neue', sans-serif;font-weight:500;font-style:italic;font-size:32px;">ContextV<tspan x="582.598px 600.39px " y="129px 129px ">al</tspan>ueT<tspan x="659.686px 675.686px " y="129px 129px ">yp</tspan>e</text>
    </g>
    <g transform="matrix(1,0,0,1,-266.094,-92)">
        <text x="502.528px" y="248.75px" style="font-family:'HelveticaNeue-Light', 'Helvetica Neue';font-weight:300;font-size:30.293px;">defaultV<tspan x="606.343px 622.066px " y="248.75px 248.75px ">al</tspan>ue</text>
        <text x="455.957px" y="353.254px" style="font-family:'HelveticaNeue-CondensedBlack', 'Helvetica Neue';font-weight:900;font-stretch:condensed;font-size:43.594px;">createConte<tspan x="671.53px 692.498px " y="353.254px 353.254px ">xt</tspan></text>
    </g>
    <g transform="matrix(1,0,0,1,-266.094,-92)">
        <clipPath id="_clip1">
            <rect x="524.5" y="788" width="111" height="44" clip-rule="nonzero"/>
        </clipPath>
        <g clip-path="url(#_clip1)">
            <text x="524.592px" y="819px" style="font-family:'HelveticaNeue-CondensedBlack', 'Helvetica Neue';font-weight:900;font-stretch:condensed;font-size:32px;">Provider</text>
        </g>
    </g>
    <g transform="matrix(1,0,0,1,-266.094,-92)">
        <text x="734.061px" y="589px" style="font-family:'HelveticaNeue-CondensedBlack', 'Helvetica Neue';font-weight:900;font-stretch:condensed;font-size:33.053px;">useConte<tspan x="859.629px 875.527px " y="589px 589px ">xt</tspan></text>
        <text x="741.399px" y="630.003px" style="font-family:'HelveticaNeue-CondensedBlack', 'Helvetica Neue';font-weight:900;font-stretch:condensed;font-size:33.053px;">Consumer</text>
    </g>
    <g transform="matrix(1,0,0,1,-266.094,-92)">
        <text x="272.257px" y="718.5px" style="font-family:'HelveticaNeue-Light', 'Helvetica Neue';font-weight:300;font-size:30.293px;">contextV<tspan x="385.614px 401.337px " y="718.5px 718.5px ">al</tspan>ue</text>
    </g>
    <g transform="matrix(1,0,0,1,-266.094,-92)">
        <text x="471.905px" y="489.5px" style="font-family:'HelveticaNeue', 'Helvetica Neue';font-size:33.255px;">ContextObject</text>
    </g>
</svg>
